<?xml version="1.0" standalone="yes"?>

<svg version="1.1" viewBox="0.0 0.0 509.95538057742783 334.9475065616798" fill="none" stroke="none" stroke-linecap="square" stroke-miterlimit="10" xmlns="http://www.w3.org/2000/svg" xmlns:xlink="http://www.w3.org/1999/xlink"><clipPath id="p.0"><path d="m0 0l509.95538 0l0 334.9475l-509.95538 0l0 -334.9475z" clip-rule="nonzero"></path></clipPath><g clip-path="url(#p.0)"><path fill="#000000" fill-opacity="0.0" d="m0 0l509.95538 0l0 334.9475l-509.95538 0z" fill-rule="nonzero"></path><path fill="#c9e2ae" d="m172.66939 132.9552l40.62993 22.015747l-22.015747 40.692917l-40.62993 -22.015747z" fill-rule="nonzero"></path><path fill="#f7c797" d="m34.13342 296.24933l0 -178.3622l367.52756 178.3622z" fill-rule="nonzero"></path><path fill="#000000" fill-opacity="0.0" d="m354.1185 273.42123c-9.666382 3.539154 -13.746399 15.771484 -8.903687 22.85376" fill-rule="evenodd"></path><path stroke="#000000" stroke-width="1.0" stroke-linejoin="round" stroke-linecap="butt" d="m354.1185 273.42123c-9.666382 3.539154 -13.746399 15.771484 -8.903687 22.85376" fill-rule="evenodd"></path><path fill="#000000" fill-opacity="0.0" d="m313.7534 269.79004l30.740143 0l0 38.929108l-30.740143 0z" fill-rule="nonzero"></path><path fill="#000000" d="m329.61276 292.40918q-2.640625 0 -4.1875 -2.21875q-1.546875 -2.21875 -1.546875 -6.078125q0 -3.8125 1.546875 -6.046875q1.546875 -2.234375 4.1875 -2.234375q2.640625 0 4.1875 2.21875q1.546875 2.21875 1.546875 6.0625q0 3.84375 -1.546875 6.078125q-1.546875 2.21875 -4.1875 2.21875zm0 -1.59375q1.75 0 2.71875 -1.484375q0.984375 -1.5 1.109375 -4.453125l-7.65625 0q0.109375 2.90625 1.09375 4.421875q0.984375 1.515625 2.734375 1.515625zm0 -13.375q-1.75 0 -2.734375 1.515625q-0.984375 1.515625 -1.09375 4.34375l7.65625 0q-0.109375 -2.78125 -1.078125 -4.3125q-0.96875 -1.546875 -2.75 -1.546875z" fill-rule="nonzero"></path><path fill="#000000" fill-opacity="0.0" d="m27.639017 132.49358l52.72441 -105.228355" fill-rule="nonzero"></path><path stroke="#000000" stroke-width="2.0" stroke-linejoin="round" stroke-linecap="butt" d="m27.639017 132.49358l47.34886 -94.499725" fill-rule="evenodd"></path><path fill="#000000" stroke="#000000" stroke-width="2.0" stroke-linecap="butt" d="m77.941345 39.47368l1.1123276 -9.594421l-7.019264 6.634762z" fill-rule="evenodd"></path><path fill="#000000" fill-opacity="0.0" d="m20.391077 108.935616l100.09448 51.874016" fill-rule="nonzero"></path><path stroke="#000000" stroke-width="2.0" stroke-linejoin="round" stroke-linecap="butt" d="m20.391077 108.935616l89.44027 46.352455" fill-rule="evenodd"></path><path fill="#000000" stroke="#000000" stroke-width="2.0" stroke-linecap="butt" d="m108.311325 158.22105l9.578331 1.2432404l-6.538292 -7.109207z" fill-rule="evenodd"></path><path fill="#000000" fill-opacity="0.0" d="m74.82276 17.654388l18.21843 9.611563" fill-rule="nonzero"></path><path stroke="#000000" stroke-width="2.0" stroke-linejoin="round" stroke-linecap="butt" d="m74.82276 17.654388l18.21843 9.611563" fill-rule="nonzero"></path><path fill="#000000" fill-opacity="0.0" d="m92.77909 5.7001753l-8.841293 16.74488" fill-rule="nonzero"></path><path stroke="#000000" stroke-width="2.0" stroke-linejoin="round" stroke-linecap="butt" d="m92.77909 5.7001753l-8.841293 16.74488" fill-rule="nonzero"></path><path fill="#000000" fill-opacity="0.0" d="m132.3558 138.33861l-8.841301 16.744888" fill-rule="nonzero"></path><path stroke="#000000" stroke-width="2.0" stroke-linejoin="round" stroke-linecap="butt" d="m132.3558 138.33861l-8.841301 16.744888" fill-rule="nonzero"></path><path fill="#000000" fill-opacity="0.0" d="m137.05553 140.85034l-8.841293 16.744873" fill-rule="nonzero"></path><path stroke="#000000" stroke-width="2.0" stroke-linejoin="round" stroke-linecap="butt" d="m137.05553 140.85034l-8.841293 16.744873" fill-rule="nonzero"></path><path fill="#000000" fill-opacity="0.0" d="m181.2664 162.82529l0 160.34647" fill-rule="nonzero"></path><path stroke="#fc6255" stroke-width="3.0" stroke-linejoin="round" stroke-linecap="butt" d="m181.2664 162.82529l0 142.34647" fill-rule="evenodd"></path><path fill="#fc6255" stroke="#fc6255" stroke-width="3.0" stroke-linecap="butt" d="m176.3112 305.17175l4.9552 13.614288l4.9552 -13.614288z" fill-rule="evenodd"></path><path fill="#000000" fill-opacity="0.0" d="m180.61333 161.52194l72.28346 39.055115" fill-rule="nonzero"></path><path stroke="#ea9999" stroke-width="2.0" stroke-linejoin="round" stroke-linecap="butt" stroke-dasharray="8.0,6.0" d="m180.61333 161.52194l61.725952 33.350845" fill-rule="evenodd"></path><path fill="#ea9999" stroke="#ea9999" stroke-width="2.0" stroke-linecap="butt" d="m240.76895 197.77914l9.555496 1.4080658l-6.4148407 -7.2207947z" fill-rule="evenodd"></path><path fill="#000000" fill-opacity="0.0" d="m251.68614 202.38068l-65.79527 117.44882" fill-rule="nonzero"></path><path stroke="#ea9999" stroke-width="2.0" stroke-linejoin="round" stroke-linecap="butt" stroke-dasharray="8.0,6.0" d="m251.68614 202.38068l-59.930405 106.979675" fill-rule="evenodd"></path><path fill="#ea9999" stroke="#ea9999" stroke-width="2.0" stroke-linecap="butt" d="m188.87369 307.74582l-1.553833 9.532867l7.317917 -6.303833z" fill-rule="evenodd"></path><path fill="#000000" fill-opacity="0.0" d="m34.889748 281.7117l13.889767 0" fill-rule="nonzero"></path><path stroke="#000000" stroke-width="1.0" stroke-linejoin="round" stroke-linecap="butt" d="m34.889748 281.7117l13.889767 0" fill-rule="nonzero"></path><path fill="#000000" fill-opacity="0.0" d="m48.7828 281.7117l0 15.086609" fill-rule="nonzero"></path><path stroke="#000000" stroke-width="1.0" stroke-linejoin="round" stroke-linecap="butt" d="m48.7828 281.7117l0 15.086609" fill-rule="nonzero"></path><path fill="#000000" fill-opacity="0.0" d="m51.316483 126.45408c-1.7682076 7.0565414 -9.255772 12.730064 -16.312305 14.498283" fill-rule="evenodd"></path><path stroke="#000000" stroke-width="1.0" stroke-linejoin="round" stroke-linecap="butt" d="m51.316483 126.45408c-1.7682076 7.0565414 -9.255772 12.730064 -16.312305 14.498283" fill-rule="evenodd"></path><path fill="#000000" fill-opacity="0.0" d="m31.920242 123.76923l33.732285 0l0 33.826775l-33.732285 0z" fill-rule="nonzero"></path><path fill="#000000" d="m50.857742 145.62674q0 2.15625 -0.921875 3.515625q-1.0 1.453125 -2.859375 1.71875l0 3.609375l-1.671875 0l0 -3.625q-1.859375 -0.265625 -2.84375 -1.6875q-0.9375 -1.328125 -0.9375 -3.390625q0 -2.0625 0.9375 -3.40625q1.0 -1.40625 2.84375 -1.6875l0 -3.578125l1.671875 0l0 3.578125q1.78125 0.25 2.8125 1.640625q0.96875 1.328125 0.96875 3.3125zm-1.71875 0.078125q0 -1.296875 -0.484375 -2.234375q-0.546875 -1.078125 -1.578125 -1.375l0 7.34375q1.0625 -0.296875 1.59375 -1.421875q0.46875 -0.953125 0.46875 -2.3125zm-3.734375 3.71875l0 -7.3125q-1.0625 0.3125 -1.59375 1.390625q-0.46875 0.9375 -0.46875 2.265625q0 1.3125 0.46875 2.25q0.53125 1.078125 1.59375 1.40625z" fill-rule="nonzero"></path><path fill="#000000" fill-opacity="0.0" d="m196.60892 170.07349c-1.6629333 6.6364594 -8.704758 11.972229 -15.341202 13.635178" fill-rule="evenodd"></path><path stroke="#000000" stroke-width="1.0" stroke-linejoin="round" stroke-linecap="butt" d="m196.60892 170.07349c-1.6629333 6.6364594 -8.704758 11.972229 -15.341202 13.635178" fill-rule="evenodd"></path><path fill="#000000" fill-opacity="0.0" d="m179.75708 167.85371l26.29921 0l0 26.393707l-26.29921 0z" fill-rule="nonzero"></path><path fill="#000000" d="m197.13208 187.94809q0 1.8125 -0.78125 2.953125q-0.84375 1.234375 -2.40625 1.453125l0 3.046875l-1.40625 0l0 -3.046875q-1.5625 -0.234375 -2.40625 -1.4375q-0.78125 -1.125 -0.78125 -2.859375q0 -1.734375 0.796875 -2.859375q0.828125 -1.1875 2.390625 -1.421875l0 -3.015625l1.40625 0l0 3.015625q1.5 0.21875 2.359375 1.375q0.828125 1.125 0.828125 2.796875zm-1.453125 0.0625q0 -1.09375 -0.40625 -1.875q-0.453125 -0.90625 -1.328125 -1.15625l0 6.171875q0.890625 -0.25 1.34375 -1.1875q0.390625 -0.8125 0.390625 -1.953125zm-3.140625 3.125l0 -6.140625q-0.90625 0.25 -1.34375 1.171875q-0.390625 0.78125 -0.390625 1.890625q0 1.109375 0.390625 1.90625q0.4375 0.90625 1.34375 1.171875z" fill-rule="nonzero"></path><path fill="#000000" fill-opacity="0.0" d="m180.61285 280.45657c7.42717 -5.5545044 19.984879 -4.403717 24.587494 5.942566" fill-rule="evenodd"></path><path stroke="#000000" stroke-width="1.0" stroke-linejoin="round" stroke-linecap="butt" d="m180.61285 280.45657c7.42717 -5.5545044 19.984879 -4.403717 24.587494 5.942566" fill-rule="evenodd"></path><path fill="#000000" fill-opacity="0.0" d="m180.61327 251.75745l33.732285 0l0 29.952759l-33.732285 0z" fill-rule="nonzero"></path><path fill="#000000" d="m195.05077 269.22153q-2.09375 0 -3.328125 -1.75q-1.21875 -1.765625 -1.21875 -4.828125q0 -3.015625 1.21875 -4.78125q1.234375 -1.78125 3.328125 -1.78125q2.09375 0 3.3125 1.765625q1.21875 1.75 1.21875 4.796875q0 3.03125 -1.21875 4.8125q-1.21875 1.765625 -3.3125 1.765625zm0 -1.28125q1.390625 0 2.15625 -1.171875q0.765625 -1.1875 0.859375 -3.515625l-6.0625 0q0.09375 2.296875 0.875 3.5q0.78125 1.1875 2.171875 1.1875zm0 -10.578125q-1.390625 0 -2.171875 1.203125q-0.78125 1.1875 -0.875 3.4375l6.0625 0q-0.078125 -2.21875 -0.84375 -3.421875q-0.765625 -1.21875 -2.171875 -1.21875z" fill-rule="nonzero"></path><path fill="#000000" fill-opacity="0.0" d="m130.94225 223.82283l52.72441 0l0 29.952759l-52.72441 0z" fill-rule="nonzero"></path><path fill="#fc6255" d="m155.73912 247.33922l0 -7.875q0 -2.390625 -2.140625 -2.390625q-0.90625 0 -1.765625 0.546875q-0.84375 0.53125 -1.3125 1.21875l0 8.5l-1.796875 0l0 -7.875q0 -2.390625 -2.140625 -2.390625q-0.875 0 -1.71875 0.546875q-0.84375 0.546875 -1.328125 1.25l0 8.46875l-1.796875 0l0 -11.59375l1.796875 0l0 1.6875q0.421875 -0.703125 1.546875 -1.328125q1.125 -0.640625 2.203125 -0.640625q1.34375 0 2.09375 0.625q0.765625 0.625 1.03125 1.53125q0.59375 -0.9375 1.6875 -1.546875q1.109375 -0.609375 2.203125 -0.609375q3.234375 0 3.234375 3.5l0 8.375l-1.796875 0zm10.048187 4.703125q-1.484375 0 -2.5625 -0.359375q-1.078125 -0.359375 -2.109375 -1.375l0.90625 -1.34375q0.71875 0.875 1.609375 1.234375q0.90625 0.359375 2.15625 0.359375q1.78125 0 2.75 -0.921875q0.96875 -0.921875 0.96875 -2.5625l0 -1.65625q-0.625 0.890625 -1.640625 1.484375q-1.015625 0.578125 -2.25 0.578125q-2.34375 0 -3.75 -1.65625q-1.40625 -1.65625 -1.40625 -4.34375q0 -2.78125 1.421875 -4.390625q1.4375 -1.625 3.734375 -1.625q2.40625 0 3.890625 2.03125l0 -1.75l1.796875 0l0 11.25q0 2.453125 -1.4375 3.75q-1.4375 1.296875 -4.078125 1.296875zm0.265625 -6.140625q0.984375 0 1.953125 -0.53125q0.96875 -0.53125 1.5 -1.375l0 -5.0625q-0.53125 -0.828125 -1.515625 -1.34375q-0.96875 -0.515625 -1.9375 -0.515625q-1.703125 0 -2.71875 1.21875q-1.0 1.21875 -1.0 3.1875q0 2.0 1.03125 3.21875q1.03125 1.203125 2.6875 1.203125z" fill-rule="nonzero"></path><path fill="#000000" fill-opacity="0.0" d="m211.99214 24.047245l182.23622 0l0 34.929134l-182.23622 0z" fill-rule="nonzero"></path><path fill="#fc6255" d="m222.86714 56.087246l0 -16.015625l10.484375 0l0 1.78125l-8.5 0l0 5.15625l8.328125 0l0 1.78125l-8.328125 0l0 7.296875l-1.984375 0z" fill-rule="nonzero"></path><path fill="#fc6255" d="m238.48898 68.22787q-0.984375 0 -1.703125 -0.25q-0.71875 -0.234375 -1.40625 -0.90625l0.609375 -0.890625q0.46875 0.5625 1.0625 0.796875q0.609375 0.25 1.4375 0.25q1.1875 0 1.828125 -0.625q0.65625 -0.609375 0.65625 -1.6875l0 -1.1093712q-0.40625 0.5937462 -1.09375 0.9843712q-0.671875 0.390625 -1.5 0.390625q-1.5625 0 -2.5 -1.09375q-0.9375 -1.1093712 -0.9375 -2.9062462q0 -1.859375 0.953125 -2.9375q0.953125 -1.078125 2.484375 -1.078125q1.609375 0 2.59375 1.359375l0 -1.171875l1.203125 0l0 7.515621q0 1.625 -0.96875 2.484375q-0.953125 0.875 -2.71875 0.875zm0.1875 -4.09375q0.65625 0 1.296875 -0.3437462q0.65625 -0.359375 1.0 -0.921875l0 -3.375q-0.34375 -0.5625 -1.0 -0.90625q-0.65625 -0.34375 -1.296875 -0.34375q-1.140625 0 -1.8125 0.8125q-0.671875 0.8125 -0.671875 2.125q0 1.328125 0.6875 2.140625q0.6875 0.8124962 1.796875 0.8124962zm10.077652 1.265625l0 -11.296871l0.875 0l0 11.296871l-0.875 0zm3.376007 0l0 -11.296871l0.875 0l0 11.296871l-0.875 0z" fill-rule="nonzero"></path><path fill="#fc6255" d="m261.15128 46.38412l0 -1.265625l10.578125 0l0 1.265625l-10.578125 0zm0 4.640625l0 -1.25l10.578125 0l0 1.25l-10.578125 0zm33.26169 5.0625l0 -7.875q0 -2.390625 -2.140625 -2.390625q-0.90625 0 -1.765625 0.546875q-0.84375 0.53125 -1.3125 1.21875l0 8.5l-1.796875 0l0 -7.875q0 -2.390625 -2.140625 -2.390625q-0.875 0 -1.71875 0.546875q-0.84375 0.546875 -1.328125 1.25l0 8.46875l-1.796875 0l0 -11.59375l1.796875 0l0 1.6875q0.421875 -0.703125 1.546875 -1.328125q1.125 -0.640625 2.203125 -0.640625q1.34375 0 2.09375 0.625q0.765625 0.625 1.03125 1.53125q0.59375 -0.9375 1.6875 -1.546875q1.109375 -0.609375 2.203125 -0.609375q3.234375 0 3.234375 3.5l0 8.375l-1.796875 0zm10.048187 4.703125q-1.484375 0 -2.5625 -0.359375q-1.078125 -0.359375 -2.109375 -1.375l0.90625 -1.34375q0.71875 0.875 1.609375 1.234375q0.90625 0.359375 2.15625 0.359375q1.78125 0 2.75 -0.921875q0.96875 -0.921875 0.96875 -2.5625l0 -1.65625q-0.625 0.890625 -1.640625 1.484375q-1.015625 0.578125 -2.25 0.578125q-2.34375 0 -3.75 -1.65625q-1.40625 -1.65625 -1.40625 -4.34375q0 -2.78125 1.421875 -4.390625q1.4375 -1.625 3.734375 -1.625q2.40625 0 3.890625 2.03125l0 -1.75l1.796875 0l0 11.25q0 2.453125 -1.4375 3.75q-1.4375 1.296875 -4.078125 1.296875zm0.265625 -6.140625q0.984375 0 1.953125 -0.53125q0.96875 -0.53125 1.5 -1.375l0 -5.0625q-0.53125 -0.828125 -1.515625 -1.34375q-0.96875 -0.515625 -1.9375 -0.515625q-1.703125 0 -2.71875 1.21875q-1.0 1.21875 -1.0 3.1875q0 2.0 1.03125 3.21875q1.03125 1.203125 2.6875 1.203125z" fill-rule="nonzero"></path><path fill="#000000" d="m317.25275 56.368496q-2.953125 0 -4.671875 -1.8125l0.9375 -1.296875q0.5625 0.671875 1.578125 1.171875q1.03125 0.484375 2.234375 0.484375q1.34375 0 2.03125 -0.5625q0.703125 -0.5625 0.703125 -1.4375q0 -0.765625 -0.765625 -1.203125q-0.75 -0.453125 -2.8125 -0.921875q-1.75 -0.359375 -2.671875 -1.140625q-0.921875 -0.78125 -0.921875 -2.109375q0 -1.46875 1.171875 -2.390625q1.171875 -0.9375 3.140625 -0.9375q2.625 0 4.296875 1.671875l-0.84375 1.25q-0.515625 -0.625 -1.421875 -1.046875q-0.90625 -0.421875 -2.03125 -0.421875q-1.203125 0 -1.890625 0.53125q-0.671875 0.53125 -0.671875 1.296875q0 0.703125 0.765625 1.109375q0.765625 0.40625 2.828125 0.84375q1.75 0.40625 2.65625 1.234375q0.921875 0.828125 0.921875 2.1875q0 1.609375 -1.25 2.5625q-1.25 0.9375 -3.3125 0.9375zm8.378723 -13.53125q-0.484375 0 -0.84375 -0.34375q-0.359375 -0.34375 -0.359375 -0.859375q0 -0.5 0.359375 -0.859375q0.359375 -0.359375 0.84375 -0.359375q0.5 0 0.859375 0.359375q0.359375 0.359375 0.359375 0.859375q0 0.515625 -0.359375 0.859375q-0.359375 0.34375 -0.859375 0.34375zm-0.890625 13.25l0 -11.59375l1.796875 0l0 11.59375l-1.796875 0zm13.228088 0l0 -7.578125q0 -1.546875 -0.71875 -2.109375q-0.703125 -0.578125 -1.875 -0.578125q-1.0 0 -1.984375 0.546875q-0.96875 0.53125 -1.453125 1.25l0 8.46875l-1.796875 0l0 -11.59375l1.796875 0l0 1.6875q0.75 -0.875 1.84375 -1.421875q1.09375 -0.546875 2.296875 -0.546875q3.6875 0 3.6875 3.734375l0 8.140625l-1.796875 0zm10.4583435 0.28125q-2.640625 0 -4.1875 -2.21875q-1.546875 -2.21875 -1.546875 -6.078125q0 -3.8125 1.546875 -6.046875q1.546875 -2.234375 4.1875 -2.234375q2.640625 0 4.1875 2.21875q1.546875 2.21875 1.546875 6.0625q0 3.84375 -1.546875 6.078125q-1.546875 2.21875 -4.1875 2.21875zm0 -1.59375q1.75 0 2.71875 -1.484375q0.984375 -1.5 1.109375 -4.453125l-7.65625 0q0.109375 2.90625 1.09375 4.421875q0.984375 1.515625 2.734375 1.515625zm0 -13.375q-1.75 0 -2.734375 1.515625q-0.984375 1.515625 -1.09375 4.34375l7.65625 0q-0.109375 -2.78125 -1.078125 -4.3125q-0.96875 -1.546875 -2.75 -1.546875z" fill-rule="nonzero"></path><path fill="#000000" fill-opacity="0.0" d="m325.35696 148.73228l182.23624 0l0 34.92914l-182.23624 0z" fill-rule="nonzero"></path><path fill="#fc6255" d="m336.23196 180.77228l0 -16.015625l10.484375 0l0 1.78125l-8.5 0l0 5.15625l8.328125 0l0 1.78125l-8.328125 0l0 7.296875l-1.984375 0z" fill-rule="nonzero"></path><path fill="#fc6255" d="m351.85382 192.9129q-0.984375 0 -1.703125 -0.25q-0.71875 -0.234375 -1.40625 -0.90625l0.609375 -0.890625q0.46875 0.5625 1.0625 0.796875q0.609375 0.25 1.4375 0.25q1.1875 0 1.828125 -0.625q0.65625 -0.609375 0.65625 -1.6875l0 -1.109375q-0.40625 0.59375 -1.09375 0.984375q-0.671875 0.390625 -1.5 0.390625q-1.5625 0 -2.5 -1.09375q-0.9375 -1.109375 -0.9375 -2.90625q0 -1.859375 0.953125 -2.9375q0.953125 -1.078125 2.484375 -1.078125q1.609375 0 2.59375 1.359375l0 -1.171875l1.203125 0l0 7.515625q0 1.625 -0.96875 2.484375q-0.953125 0.875 -2.71875 0.875zm0.1875 -4.09375q0.65625 0 1.296875 -0.34375q0.65625 -0.359375 1.0 -0.921875l0 -3.375q-0.34375 -0.5625 -1.0 -0.90625q-0.65625 -0.34375 -1.296875 -0.34375q-1.140625 0 -1.8125 0.8125q-0.671875 0.8125 -0.671875 2.125q0 1.328125 0.6875 2.140625q0.6875 0.8125 1.796875 0.8125z" fill-rule="nonzero"></path><path fill="#fc6255" d="m367.76407 171.06915l0 -1.265625l10.578125 0l0 1.265625l-10.578125 0zm0 4.640625l0 -1.25l10.578125 0l0 1.25l-10.578125 0zm33.26172 5.0625l0 -7.875q0 -2.390625 -2.140625 -2.390625q-0.90625 0 -1.765625 0.546875q-0.84375 0.53125 -1.3125 1.21875l0 8.5l-1.796875 0l0 -7.875q0 -2.390625 -2.140625 -2.390625q-0.875 0 -1.71875 0.546875q-0.84375 0.546875 -1.328125 1.25l0 8.46875l-1.796875 0l0 -11.59375l1.796875 0l0 1.6875q0.421875 -0.703125 1.546875 -1.328125q1.125 -0.640625 2.203125 -0.640625q1.34375 0 2.09375 0.625q0.765625 0.625 1.03125 1.53125q0.59375 -0.9375 1.6875 -1.546875q1.109375 -0.609375 2.203125 -0.609375q3.234375 0 3.234375 3.5l0 8.375l-1.796875 0zm10.048187 4.703125q-1.484375 0 -2.5625 -0.359375q-1.078125 -0.359375 -2.109375 -1.375l0.90625 -1.34375q0.71875 0.875 1.609375 1.234375q0.90625 0.359375 2.15625 0.359375q1.78125 0 2.75 -0.921875q0.96875 -0.921875 0.96875 -2.5625l0 -1.65625q-0.625 0.890625 -1.640625 1.484375q-1.015625 0.578125 -2.25 0.578125q-2.34375 0 -3.75 -1.65625q-1.40625 -1.65625 -1.40625 -4.34375q0 -2.78125 1.421875 -4.390625q1.4375 -1.625 3.734375 -1.625q2.40625 0 3.890625 2.03125l0 -1.75l1.796875 0l0 11.25q0 2.453125 -1.4375 3.75q-1.4375 1.296875 -4.078125 1.296875zm0.265625 -6.140625q0.984375 0 1.953125 -0.53125q0.96875 -0.53125 1.5 -1.375l0 -5.0625q-0.53125 -0.828125 -1.515625 -1.34375q-0.96875 -0.515625 -1.9375 -0.515625q-1.703125 0 -2.71875 1.21875q-1.0 1.21875 -1.0 3.1875q0 2.0 1.03125 3.21875q1.03125 1.203125 2.6875 1.203125z" fill-rule="nonzero"></path><path fill="#000000" d="m425.30304 181.05353q-2.53125 0 -4.15625 -1.71875q-1.625 -1.734375 -1.625 -4.375q0 -2.609375 1.625 -4.328125q1.625 -1.734375 4.15625 -1.734375q2.6875 0 4.25 2.015625l-1.203125 1.09375q-1.09375 -1.5 -2.9375 -1.5q-1.78125 0 -2.90625 1.234375q-1.109375 1.234375 -1.109375 3.21875q0 2.015625 1.09375 3.265625q1.109375 1.234375 2.921875 1.234375q1.8125 0 2.9375 -1.515625l1.203125 1.09375q-1.5625 2.015625 -4.25 2.015625zm11.833099 0q-2.515625 0 -4.125 -1.703125q-1.609375 -1.71875 -1.609375 -4.390625q0 -2.6875 1.609375 -4.375q1.609375 -1.6875 4.125 -1.6875q2.53125 0 4.125 1.6875q1.609375 1.6875 1.609375 4.375q0 2.671875 -1.609375 4.390625q-1.59375 1.703125 -4.125 1.703125zm0 -1.59375q1.6875 0 2.765625 -1.265625q1.078125 -1.265625 1.078125 -3.234375q0 -1.9375 -1.078125 -3.1875q-1.078125 -1.265625 -2.765625 -1.265625q-1.671875 0 -2.765625 1.25q-1.09375 1.234375 -1.09375 3.203125q0 2.0 1.078125 3.25q1.078125 1.25 2.78125 1.25zm12.337341 1.59375q-2.953125 0 -4.671875 -1.8125l0.9375 -1.296875q0.5625 0.671875 1.578125 1.171875q1.03125 0.484375 2.234375 0.484375q1.34375 0 2.03125 -0.5625q0.703125 -0.5625 0.703125 -1.4375q0 -0.765625 -0.765625 -1.203125q-0.75 -0.453125 -2.8125 -0.921875q-1.75 -0.359375 -2.671875 -1.140625q-0.921875 -0.78125 -0.921875 -2.109375q0 -1.46875 1.171875 -2.390625q1.171875 -0.9375 3.140625 -0.9375q2.625 0 4.296875 1.671875l-0.84375 1.25q-0.515625 -0.625 -1.421875 -1.046875q-0.90625 -0.421875 -2.03125 -0.421875q-1.203125 0 -1.890625 0.53125q-0.671875 0.53125 -0.671875 1.296875q0 0.703125 0.765625 1.109375q0.765625 0.40625 2.828125 0.84375q1.75 0.40625 2.65625 1.234375q0.921875 0.828125 0.921875 2.1875q0 1.609375 -1.25 2.5625q-1.25 0.9375 -3.3125 0.9375zm12.550598 0q-2.640625 0 -4.1875 -2.21875q-1.546875 -2.21875 -1.546875 -6.078125q0 -3.8125 1.546875 -6.046875q1.546875 -2.234375 4.1875 -2.234375q2.640625 0 4.1875 2.21875q1.546875 2.21875 1.546875 6.0625q0 3.84375 -1.546875 6.078125q-1.546875 2.21875 -4.1875 2.21875zm0 -1.59375q1.75 0 2.71875 -1.484375q0.984375 -1.5 1.109375 -4.453125l-7.65625 0q0.109375 2.90625 1.09375 4.421875q0.984375 1.515625 2.734375 1.515625zm0 -13.375q-1.75 0 -2.734375 1.515625q-0.984375 1.515625 -1.09375 4.34375l7.65625 0q-0.109375 -2.78125 -1.078125 -4.3125q-0.96875 -1.546875 -2.75 -1.546875z" fill-rule="nonzero"></path><path fill="#000000" fill-opacity="0.0" d="m214.34645 27.501312l146.70866 0l0 46.362206l-146.70866 0z" fill-rule="nonzero"></path><path stroke="#000000" stroke-width="2.0" stroke-linejoin="round" stroke-linecap="butt" d="m214.34645 27.501312l146.70866 0l0 46.362206l-146.70866 0z" fill-rule="nonzero"></path><path fill="#000000" fill-opacity="0.0" d="m287.70078 73.86352l-39.96849 85.00788" fill-rule="nonzero"></path><path stroke="#000000" stroke-width="1.0" stroke-linejoin="round" stroke-linecap="butt" d="m287.70078 73.86352l-39.96849 85.00788" fill-rule="nonzero"></path><path fill="#000000" fill-opacity="0.0" d="m328.69028 153.71129l156.78741 0l0 46.362198l-156.78741 0z" fill-rule="nonzero"></path><path stroke="#000000" stroke-width="2.0" stroke-linejoin="round" stroke-linecap="butt" d="m328.69028 153.71129l156.78741 0l0 46.362198l-156.78741 0z" fill-rule="nonzero"></path><path fill="#000000" fill-opacity="0.0" d="m328.69028 176.8924l-75.96849 78.61417" fill-rule="nonzero"></path><path stroke="#000000" stroke-width="1.0" stroke-linejoin="round" stroke-linecap="butt" d="m328.69028 176.8924l-75.96849 78.61417" fill-rule="nonzero"></path><path fill="#000000" fill-opacity="0.0" d="m220.72308 245.23885l52.724396 0l0 29.952744l-52.724396 0z" fill-rule="nonzero"></path><path fill="#e06666" d="m231.59808 268.75522l0 -16.015625l10.484375 0l0 1.78125l-8.5 0l0 5.15625l8.328125 0l0 1.78125l-8.328125 0l0 7.296875l-1.984375 0z" fill-rule="nonzero"></path><path fill="#e06666" d="m247.21992 280.89584q-0.984375 0 -1.703125 -0.25q-0.71875 -0.234375 -1.40625 -0.90625l0.609375 -0.890625q0.46875 0.5625 1.0625 0.796875q0.609375 0.25 1.4375 0.25q1.1875 0 1.828125 -0.625q0.65625 -0.609375 0.65625 -1.6875l0 -1.109375q-0.40625 0.59375 -1.09375 0.984375q-0.671875 0.390625 -1.5 0.390625q-1.5625 0 -2.5 -1.09375q-0.9375 -1.109375 -0.9375 -2.90625q0 -1.859375 0.953125 -2.9375q0.953125 -1.078125 2.484375 -1.078125q1.609375 0 2.59375 1.359375l0 -1.171875l1.203125 0l0 7.515625q0 1.625 -0.96875 2.484375q-0.953125 0.875 -2.71875 0.875zm0.1875 -4.09375q0.65625 0 1.296875 -0.34375q0.65625 -0.359375 1.0 -0.921875l0 -3.375q-0.34375 -0.5625 -1.0 -0.90625q-0.65625 -0.34375 -1.296875 -0.34375q-1.140625 0 -1.8125 0.8125q-0.671875 0.8125 -0.671875 2.125q0 1.328125 0.6875 2.140625q0.6875 0.8125 1.796875 0.8125z" fill-rule="nonzero"></path><path fill="#000000" fill-opacity="0.0" d="m252.49869 280.3596l12.062988 0" fill-rule="nonzero"></path><path stroke="#e06666" stroke-width="1.0" stroke-linejoin="round" stroke-linecap="butt" d="m252.49869 280.3596l12.062988 0" fill-rule="nonzero"></path><path fill="#000000" fill-opacity="0.0" d="m258.53018 280.3596l0 -9.259857" fill-rule="nonzero"></path><path stroke="#e06666" stroke-width="1.0" stroke-linejoin="round" stroke-linecap="butt" d="m258.53018 280.3596l0 -9.259857" fill-rule="nonzero"></path><path fill="#000000" fill-opacity="0.0" d="m213.2992 149.33202l52.724426 0l0 29.952759l-52.724426 0z" fill-rule="nonzero"></path><path fill="#e06666" d="m224.1742 172.8484l0 -16.015625l10.484375 0l0 1.78125l-8.5 0l0 5.15625l8.328125 0l0 1.78125l-8.328125 0l0 7.296875l-1.984375 0z" fill-rule="nonzero"></path><path fill="#e06666" d="m239.79604 184.98903q-0.984375 0 -1.703125 -0.25q-0.71875 -0.234375 -1.40625 -0.90625l0.609375 -0.890625q0.46875 0.5625 1.0625 0.796875q0.609375 0.25 1.4375 0.25q1.1875 0 1.828125 -0.625q0.65625 -0.609375 0.65625 -1.6875l0 -1.109375q-0.40625 0.59375 -1.09375 0.984375q-0.671875 0.390625 -1.5 0.390625q-1.5625 0 -2.5 -1.09375q-0.9375 -1.109375 -0.9375 -2.90625q0 -1.859375 0.953125 -2.9375q0.953125 -1.078125 2.484375 -1.078125q1.609375 0 2.59375 1.359375l0 -1.171875l1.203125 0l0 7.515625q0 1.625 -0.96875 2.484375q-0.953125 0.875 -2.71875 0.875zm0.1875 -4.09375q0.65625 0 1.296875 -0.34375q0.65625 -0.359375 1.0 -0.921875l0 -3.375q-0.34375 -0.5625 -1.0 -0.90625q-0.65625 -0.34375 -1.296875 -0.34375q-1.140625 0 -1.8125 0.8125q-0.671875 0.8125 -0.671875 2.125q0 1.328125 0.6875 2.140625q0.6875 0.8125 1.796875 0.8125zm10.077652 1.265625l0 -11.296875l0.875 0l0 11.296875l-0.875 0zm3.376007 0l0 -11.296875l0.875 0l0 11.296875l-0.875 0z" fill-rule="nonzero"></path><path fill="#000000" fill-opacity="0.0" d="m358.16534 192.92126l12.062988 0" fill-rule="nonzero"></path><path stroke="#e06666" stroke-width="1.0" stroke-linejoin="round" stroke-linecap="butt" d="m358.16534 192.92126l12.062988 0" fill-rule="nonzero"></path><path fill="#000000" fill-opacity="0.0" d="m364.19684 192.92126l0 -9.259842" fill-rule="nonzero"></path><path stroke="#e06666" stroke-width="1.0" stroke-linejoin="round" stroke-linecap="butt" d="m364.19684 192.92126l0 -9.259842" fill-rule="nonzero"></path></g></svg>

