<?xml version="1.0" encoding="utf-8"?>
<!-- Generator: Adobe Illustrator 13.0.0, SVG Export Plug-In  -->
<!DOCTYPE svg PUBLIC "-//W3C//DTD SVG 1.1//EN" "http://www.w3.org/Graphics/SVG/1.1/DTD/svg11.dtd" [
	<!ENTITY ns_flows "http://ns.adobe.com/Flows/1.0/">
]>
<svg version="1.1"
	 xmlns="http://www.w3.org/2000/svg" xmlns:xlink="http://www.w3.org/1999/xlink" xmlns:a="http://ns.adobe.com/AdobeSVGViewerExtensions/3.0/"
	 x="0px" y="0px" width="300px" height="200px" viewBox="-4.999 -2 300 200" enable-background="new -4.999 -2 300 200"
	 xml:space="preserve">
<defs>
</defs>
<polygon fill="#B8B0B0" stroke="#000000" points="55.168,152.917 56.001,153.25 58.668,153.75 60.834,154.417 63.751,155.25 
	65.084,155.667 65.668,157.667 64.501,160.75 64.501,160.75 39.001,161.083 40.001,154.25 42.751,154.75 "/>
<polygon fill="#008563" stroke="#000000" points="22.063,55.25 26.563,54.25 55.563,98.417 55.23,109.75 55.563,122.583 
	55.563,141.083 53.897,145.583 53.897,147.417 54.397,153.25 53.063,154.25 49.563,155.25 45.063,155.083 42.23,154.583 
	39.23,153.417 39.397,147.25 40.897,145.25 40.397,141.917 39.897,108.75 40.563,98.083 34.397,91.25 28.73,84.25 22.73,76.75 
	20.563,67.916 20.397,60.416 "/>
<polygon fill="#90999B" stroke="#000000" stroke-width="0.5" points="51.001,67.5 42.501,61.5 38.501,56 32.001,54 26.501,54 
	22.001,55 27.001,47.5 35.001,40 40.501,36.5 44.501,32 51.001,26.5 59.001,22.5 65.001,21 70.001,20.5 75.001,20.5 77.001,22.5 
	80.001,24.5 83.501,26 86.501,29 90.001,32 91.001,38.5 91.501,44.5 90.501,49 87.501,46 82.501,44 79.501,44.5 77.001,49.5 
	74.001,51.5 69.751,54.25 66.001,56.25 59.001,59 55.001,60 52.001,63 "/>
<polygon fill="#A64926" stroke="#000000" points="102.501,13 97.001,14 92.501,14.5 89.001,15 88.001,12 85.501,11 83.834,14.167 
	82.001,17.5 79.501,19.5 77.501,20 76.001,16.5 76.001,11.5 77.501,4.5 83.501,0.5 92.501,0.5 98.501,4 101.501,8 "/>
<polygon fill="#E07F45" points="102.501,13 99.501,18 97.501,20.5 97.001,25 92.501,27 91.001,30.167 86.501,29 80.001,24.5 
	76.001,21.333 82.001,17.5 85.501,11 88.001,12 89.001,15 92.501,14.5 97.001,14 "/>
<path fill="none" stroke="#000000" d="M83.168,23.833c0.305,0.392,0.432,1.628,0.5,1.833"/>
<path fill="none" stroke="#000000" d="M82.668,23c0.492,0.775,0.965,1.669,1.5,2.333"/>
<path fill="none" stroke="#000000" d="M93.334,27.5c-0.77,0.066-1.48-0.04-2.167-0.333"/>
<path fill="none" stroke="#000000" stroke-width="0.75" d="M96.001,25.333c-1,0-2,0-3,0"/>
<path fill="none" stroke="#000000" d="M96.334,19.667c-0.713-0.002-1.437,0.011-2.141-0.025c-0.014-0.364-0.366-1.002-0.359-0.975"
	/>
<path fill="none" stroke="#000000" d="M98.501,18c-0.885-0.435-1.929-1.007-2.667-1.5"/>
<path fill="none" stroke="#000000" d="M86.168,13.667c-0.975,0.554-0.464,1.369-0.667,2.333c-0.25,1.19-0.78,1.188-1.167,1.667"/>
<path fill="none" stroke="#000000" d="M78.168,45.333c-2.27,0.499-2.267-3.716-1.167-4.167"/>
<path fill="none" stroke="#000000" d="M87.834,47.333c0.68,1.156,0.85,2.411,2.638,1.638c0.049-0.167,0.014-0.299,0.029-0.471"/>
<path fill="none" stroke="#000000" d="M77.501,49c-1.554,0.214-1.163-1.638-1.167-2.667"/>
<polyline fill="none" points="93.168,89.166 88.501,84.834 83.834,77.5 81.501,69.834 "/>
<polygon fill="#E9835C" stroke="#000000" points="84.167,44.833 86.834,46 88.167,50.333 87.167,54.833 87.167,60.166 89.001,64 
	91.167,68.834 92.834,74.334 95.167,81.334 97.167,81.5 99.501,84 102.001,88.5 92.501,89.166 89.501,86.666 85.834,80 81.667,71 
	80.001,65.834 77.667,61.334 77.334,50.833 77.667,47.833 79.501,44.5 82.501,44 "/>
<polygon fill="#E2855F" stroke="#000000" points="77.334,80.166 74.834,80.334 73.834,76.666 69.667,74 65.334,72.166 
	63.501,67.834 61.167,63.166 60.834,58.666 65.001,56.5 69.751,54.25 69.834,63 71.167,69.166 74.334,71.334 76.334,73.666 
	77.167,76.666 "/>
<path fill="#009F7A" stroke="#000000" d="M51.001,67.5l4.833,5.166L65.667,84l8,8.334l6.333,8.999l1.333,5.334
	c0,0,2,8.833,2.167,9.333s3.833,13,3.833,13l3.167,10.5l4.833,8.333L96.001,152l-5.333,2.5l-5.5,2.333L81.834,158l-4-0.167l-2-3.833
	l-0.5-1v-3.167L73.501,145l-6.333-14l-3.5-11.667l-0.333-6.166l-0.833-2.5l-2.833-3.334l-6.833-8l-10.5-8.999l-7.833-6L28.001,79
	l-3-5.166l-1.167-6.168v-5.332l2-8.334h5.5l5,1.333l2.5,1.333l2.5,3.167l2.5,2.332l4,2.834L51.001,67.5z"/>
<g>
	<g>
		<path fill="none" d="M25.667,55.833c0.5,0.667,0.333,1.667-0.333,2.333"/>
		<path fill="#009178" d="M24.783,56.258c0.37,0.544,0.162,1.18-0.256,1.626c-0.312,0.333-0.163,0.787,0.25,0.931
			c0.471,0.165,1.032-0.01,1.366-0.366c0.781-0.833,1.083-2.05,0.41-3.039C26.062,54.688,24.219,55.43,24.783,56.258L24.783,56.258z
			"/>
	</g>
</g>
<g>
	<g>
		<path fill="none" d="M25.667,55.5"/>
		<path fill="#567EB0" d="M25.283,56.014c0.676,0,2.073-1.027,0.77-1.027C25.376,54.986,23.979,56.014,25.283,56.014L25.283,56.014z
			"/>
	</g>
</g>
<g>
	<g>
		<line fill="none" x1="25.334" y1="55.167" x2="25.334" y2="55.333"/>
		<path fill="#009F7A" d="M24.368,55.286c0,0.056,0,0.111,0,0.167c0,0.815,1.933,0.399,1.933-0.239c0-0.056,0-0.111,0-0.167
			C26.301,54.232,24.368,54.648,24.368,55.286L24.368,55.286z"/>
	</g>
</g>
<g>
	<g>
		<path fill="none" d="M24.334,57.5c0,0.166,0,0.334,0,0.666"/>
		<path fill="#567EB0" d="M23.367,57.615c0,0.222,0,0.444,0,0.666c0,0.839,1.936,0.434,1.936-0.229c0-0.222,0-0.444,0-0.666
			C25.302,56.546,23.367,56.952,23.367,57.615L23.367,57.615z"/>
	</g>
</g>
<g>
	<g>
		<path fill="none" d="M25.167,58.666c-0.333,1-0.5,2.168-0.5,3.334"/>
		<path fill="#009F7A" d="M24.207,58.805c-0.357,1.124-0.493,2.278-0.505,3.454c-0.005,0.495,1.925,0.166,1.932-0.518
			c0.011-1.094,0.164-2.17,0.495-3.214C26.312,57.949,24.393,58.216,24.207,58.805L24.207,58.805z"/>
	</g>
</g>
<g>
	<g>
		<path fill="none" d="M24.834,56.667c-0.333,0.833-0.333,1.833-0.5,2.833"/>
		<path fill="#009178" d="M23.866,56.779c-0.333,0.909-0.353,1.886-0.5,2.833c-0.124,0.8,1.829,0.467,1.937-0.226
			c0.147-0.948,0.166-1.925,0.5-2.833c0.159-0.432-0.623-0.478-0.844-0.452C24.536,56.151,24.024,56.35,23.866,56.779L23.866,56.779
			z"/>
	</g>
</g>
<g>
	<g>
		<path fill="none" d="M23.001,61c0.5,1.5,2,2.5,3.333,3.666"/>
		<path fill="#009F7A" d="M22.035,61.259c0.609,1.653,2.119,2.667,3.399,3.774c0.489,0.423,2.281-0.318,1.8-0.734
			c-1.203-1.04-2.695-2.005-3.268-3.558C23.733,60.108,21.822,60.681,22.035,61.259L22.035,61.259z"/>
	</g>
</g>
<g>
	<g>
		<path fill="none" d="M24.667,64c0.167,0.166,0.333,0.334,0.333,0.666"/>
		<path fill="#567EB0" d="M23.781,64.417c0.169,0.172,0.232,0.26,0.254,0.507c0.04,0.472,0.839,0.452,1.135,0.373
			c0.426-0.114,0.837-0.413,0.796-0.891c-0.028-0.331-0.183-0.591-0.413-0.825c-0.342-0.347-0.89-0.319-1.306-0.123
			C23.962,63.594,23.438,64.069,23.781,64.417L23.781,64.417z"/>
	</g>
</g>
<g>
	<g>
		<line fill="none" x1="24.501" y1="64.666" x2="24.501" y2="64.834"/>
		<path fill="#009F7A" d="M23.528,64.761c0,0.056,0,0.112,0,0.168c0,0.927,1.945,0.57,1.945-0.19c0-0.056,0-0.112,0-0.168
			C25.474,63.644,23.528,64,23.528,64.761L23.528,64.761z"/>
	</g>
</g>
<g>
	<g>
		<path fill="none" d="M23.501,63.666c0.167,0.5,0.5,1,0.667,1.668"/>
		<path fill="#009F7A" d="M22.535,63.925c0.203,0.566,0.506,1.084,0.667,1.668c0.188,0.683,2.118,0.162,1.932-0.518
			c-0.16-0.583-0.463-1.102-0.667-1.668C24.221,62.722,22.305,63.284,22.535,63.925L22.535,63.925z"/>
	</g>
</g>
<g>
	<g>
		<path fill="none" d="M23.834,66.166c0.167,0.168,0.333,0.334,0.5,0.5"/>
		<path fill="#009178" d="M22.951,66.595c0.166,0.167,0.333,0.333,0.5,0.5c0.354,0.353,0.874,0.367,1.314,0.153
			c0.297-0.145,0.807-0.659,0.452-1.012c-0.167-0.166-0.334-0.333-0.5-0.5c-0.352-0.354-0.875-0.366-1.314-0.153
			C23.104,65.729,22.599,66.241,22.951,66.595L22.951,66.595z"/>
	</g>
</g>
<g>
	<g>
		<path fill="none" d="M25.001,67.5c0,0.334,0,0.666,0,1"/>
		<path fill="#009F7A" d="M24.021,67.57c0,0.333,0,0.667,0,1c0,1.028,1.959,0.745,1.959-0.141c0-0.333,0-0.667,0-1
			C25.98,66.402,24.021,66.685,24.021,67.57L24.021,67.57z"/>
	</g>
</g>
<g>
	<g>
		<path fill="none" d="M25.334,68.666c0,0.334,0,0.5,0.167,0.834"/>
		<path fill="#009178" d="M24.369,68.925c0.001,0.308,0.038,0.552,0.167,0.834c0.207,0.455,2.074-0.205,1.932-0.518
			c-0.128-0.282-0.165-0.526-0.167-0.834C26.299,68.115,24.366,68.39,24.369,68.925L24.369,68.925z"/>
	</g>
</g>
<polygon fill="#D7D4CC" stroke="#000000" points="95.334,152.667 97.834,152.333 98.834,153.5 101.001,154.167 104.167,154.333 
	106.501,155.667 108.334,157.667 107.334,160.333 106.667,160.833 79.167,160.833 78.667,158.5 81.834,158 "/>
<line fill="none" stroke="#2E3636" x1="0.001" y1="161.5" x2="288.501" y2="161"/>
<polygon fill="#BC8B5D" stroke="#000000" points="61.251,70 65.334,72.166 71.251,75 73.834,76.666 75.376,77.75 76.626,78 
	77.751,78.25 81.001,79.25 87.001,82.25 88.501,84.834 93.168,89.166 97.501,89.25 102.001,88.5 103.751,90.25 244.501,157.75 
	243.501,160.5 240.751,159 98.501,91.5 60.001,72.75 "/>
<polygon fill="#E2855F" stroke="#000000" points="66.103,76.263 67.132,77.162 67.789,78.705 70.518,79.124 71.922,80.714 
	73.093,82.039 75.323,82.427 77.584,82.316 78.988,82.569 "/>
<polygon fill="#E2855F" stroke="#000000" points="66.103,76.263 67.132,77.162 67.789,78.705 70.518,79.124 71.922,80.714 
	73.093,82.039 75.323,82.427 77.584,82.316 78.988,82.569 "/>
<polygon fill="#E2855F" stroke="#000000" points="194.001,137 211.751,160 177.251,160.25 "/>
<path fill="#40382B" stroke="#000000" stroke-width="0.5" d="M226.501,148.5l-6.25-5.25l-3.25-8l0.75-6l3.5-3.75l5.25-1.25l4-2.75
	l3.75-2.25l2.25-4.75l3.25-2.25c0,0,6.75-1,7.5-1s10-0.25,10.75,0.75s5,3.75,5,4.5s-0.25,4.25-0.25,4.25l-2,4.25
	c0,0-0.25,2.25,1.25,2.75s4.75,0.75,5.5,2s1,3.25,0.5,5s-0.25,3.5-2,4s-3.5,2.25-3.5,2.25s0.75,0,0,0s-1.5,1.5,0.5,2.5
	s-1.75,1.75-0.5,2.5s-1.75-0.5-1.5,0.75s1,1.75,1.25,2.75s0.25,2.75,0.25,2.75s0,1.75-1,2.75s-1.75,2.5-1.75,2.5l-4.5,1.5
	c0,0-4.25,0.5-5,0.5s-2.75-0.5-2.75-0.5l-3.25-2.25L226.501,148.5z"/>
<rect x="36.684" y="117.71" transform="matrix(-0.3897 0.9209 -0.9209 -0.3897 213.1821 100.0188)" fill="#FF0500" stroke="#000000" width="73.532" height="5.874"/>
<polygon fill="#FF0500" stroke="#000000" points="52.005,151.107 66.047,156.445 51.094,173.438 "/>
<text transform="matrix(1 0 0 1 28.001 189)" font-family="'MyriadPro-Regular'" font-size="24">Force</text>
<text transform="matrix(1 0 0 1 168.501 190)" font-family="'MyriadPro-Regular'" font-size="24">Pivot</text>
<text transform="matrix(1 0 0 1 216.001 103)" font-family="'MyriadPro-Regular'" font-size="12">Object/Load</text>
<text transform="matrix(1 0 0 1 133.001 19)" font-family="'MyriadPro-Regular'" font-size="12">This is really easy.</text>
</svg>
